<?xml version="1.0" standalone="no"?>
<!DOCTYPE svg PUBLIC "-//W3C//DTD SVG 20010904//EN"
 "http://www.w3.org/TR/2001/REC-SVG-20010904/DTD/svg10.dtd">
<svg version="1.0" xmlns="http://www.w3.org/2000/svg"
 width="512.000000pt" height="512.000000pt" viewBox="0 0 512.000000 512.000000"
 preserveAspectRatio="xMidYMid meet">

<g transform="translate(0.000000,512.000000) scale(0.100000,-0.100000)"
fill="#000000" stroke="none">
<path d="M78 5099 c-23 -12 -46 -35 -58 -59 -20 -39 -20 -53 -18 -1044 3 -997
3 -1005 24 -1032 44 -60 67 -69 185 -72 l109 -4 0 -898 c0 -601 3 -908 10
-927 14 -37 1006 -1031 1047 -1049 48 -21 2318 -21 2366 0 41 18 1033 1012
1047 1049 7 19 10 326 10 927 l0 898 109 4 c118 3 141 12 185 72 21 27 21 35
24 1032 2 992 2 1005 -18 1044 -13 26 -34 47 -60 60 -39 20 -53 20 -2482 20
-2413 -1 -2443 -1 -2480 -21z m2332 -1656 l0 -1378 23 -39 c57 -100 197 -100
254 0 l23 39 0 1378 0 1377 1055 0 1055 0 0 -814 0 -814 -114 -4 c-129 -3
-156 -15 -188 -79 -17 -32 -18 -99 -18 -984 l0 -950 -437 -437 -438 -438
-1065 0 -1065 0 -437 437 -438 438 0 950 c0 885 -1 952 -18 984 -32 64 -59 76
-188 79 l-114 4 0 814 0 814 1055 0 1055 0 0 -1377z"/>
<path d="M584 4469 c-41 -12 -91 -69 -99 -111 -3 -18 -5 -188 -3 -378 3 -343
3 -345 26 -378 43 -60 67 -66 269 -70 l183 -4 2 -1066 c3 -879 5 -1071 17
-1092 26 -48 754 -771 796 -791 38 -18 78 -19 783 -19 645 0 748 2 780 15 41
17 770 737 800 790 16 28 17 118 20 1097 l2 1066 183 4 c202 4 226 10 269 70
l23 33 0 372 c0 360 -1 372 -21 399 -11 15 -33 37 -48 48 -27 21 -36 21 -719
21 l-692 0 -31 -22 c-70 -50 -69 -40 -72 -430 -3 -332 -2 -356 17 -397 21 -48
54 -75 104 -85 l32 -7 3 -972 2 -972 -650 0 -650 0 2 972 3 972 32 7 c50 10
83 37 104 85 19 41 20 65 17 397 -3 345 -3 353 -25 383 -12 17 -35 40 -50 50
-27 18 -60 19 -703 21 -390 1 -688 -2 -706 -8z"/>
</g>
</svg>
