<?xml version="1.0" standalone="no"?>
<!DOCTYPE svg PUBLIC "-//W3C//DTD SVG 20010904//EN"
 "http://www.w3.org/TR/2001/REC-SVG-20010904/DTD/svg10.dtd">
<svg version="1.0" xmlns="http://www.w3.org/2000/svg"
 width="128.000000pt" height="128.000000pt" viewBox="0 0 128.000000 128.000000"
 preserveAspectRatio="xMidYMid meet">

<g transform="translate(0.000000,128.000000) scale(0.100000,-0.100000)"
fill="#000000" stroke="none">
<path d="M533 1076 c-53 -17 -100 -47 -138 -85 -27 -29 -28 -33 -13 -47 15
-15 20 -13 68 25 54 43 129 71 190 71 61 0 136 -28 190 -71 48 -38 53 -40 68
-25 15 14 13 19 -18 51 -57 58 -129 88 -224 92 -50 2 -97 -2 -123 -11z"/>
<path d="M578 981 c-41 -13 -97 -50 -108 -71 -26 -48 9 -70 46 -29 30 34 69
49 124 49 58 0 82 -10 128 -53 29 -28 34 -30 48 -15 15 14 14 18 -1 42 -40 61
-163 100 -237 77z"/>
<path d="M594 871 c-29 -13 -64 -59 -57 -77 7 -18 39 -18 50 0 4 7 18 18 31
25 25 14 55 2 83 -33 16 -19 19 -20 34 -5 46 46 -71 120 -141 90z"/>
<path d="M56 784 c-11 -28 4 -34 80 -34 l74 0 0 -83 c0 -51 5 -88 12 -95 7 -7
44 -12 95 -12 l83 0 0 -47 c0 -27 2 -57 5 -68 4 -15 -6 -28 -40 -53 -44 -32
-45 -34 -45 -88 0 -37 -5 -61 -15 -71 -25 -24 -12 -38 38 -41 37 -2 49 1 54
14 4 10 0 22 -10 29 -11 8 -17 27 -17 53 0 37 5 45 46 77 26 19 57 35 70 35
21 0 24 -5 24 -34 0 -48 38 -98 88 -116 37 -13 47 -13 84 0 50 18 88 68 88
116 0 29 3 34 24 34 13 0 44 -16 70 -35 41 -32 46 -40 46 -77 0 -26 -6 -45
-17 -53 -29 -22 -9 -45 41 -45 48 0 66 19 41 44 -10 9 -15 35 -15 70 0 54 -1
56 -45 88 -34 25 -44 38 -40 53 3 11 5 41 5 68 l0 47 83 0 c51 0 88 5 95 12 7
7 12 44 12 95 l0 83 74 0 c73 0 89 7 79 38 -4 9 -49 12 -183 12 -153 0 -179
-2 -184 -16 -11 -28 4 -34 80 -34 l74 0 0 -70 0 -70 -61 0 c-54 0 -66 4 -96
30 l-34 30 -179 0 -179 0 -34 -30 c-30 -26 -42 -30 -96 -30 l-61 0 0 70 0 70
74 0 c74 0 90 7 78 38 -3 9 -49 12 -182 12 -153 0 -179 -2 -184 -16z m607
-426 c7 -21 -4 -38 -23 -38 -19 0 -34 25 -24 41 8 13 42 11 47 -3z"/>
<path d="M614 759 c-3 -6 1 -18 9 -27 13 -12 19 -13 31 -3 8 7 12 19 9 27 -6
17 -39 19 -49 3z"/>
</g>
</svg>
