<?xml version="1.0" standalone="no"?>
<!DOCTYPE svg PUBLIC "-//W3C//DTD SVG 20010904//EN"
 "http://www.w3.org/TR/2001/REC-SVG-20010904/DTD/svg10.dtd">
<svg version="1.0" xmlns="http://www.w3.org/2000/svg"
 width="128.000000pt" height="128.000000pt" viewBox="0 0 128.000000 128.000000"
 preserveAspectRatio="xMidYMid meet">

<g transform="translate(0.000000,128.000000) scale(0.100000,-0.100000)"
fill="#000000" stroke="none">
<path d="M585 1270 c-55 -11 -142 -45 -189 -73 -94 -58 -188 -181 -215 -282
-11 -43 -17 -142 -9 -150 2 -3 23 4 46 15 44 21 78 25 101 11 24 -15 5 -41
-30 -41 -17 0 -48 -9 -68 -20 l-36 -21 0 -72 c0 -66 -3 -77 -38 -132 -43 -70
-45 -81 -14 -91 39 -12 57 -35 57 -76 0 -31 4 -38 19 -38 26 0 36 -17 20 -36
-10 -12 -8 -18 9 -30 18 -12 22 -25 22 -70 0 -73 20 -83 122 -66 127 22 227
62 314 127 9 6 17 6 26 -3 17 -17 -23 -57 -93 -92 l-56 -29 16 -50 16 -51 253
0 252 0 -20 39 c-28 56 -70 188 -70 222 0 16 22 72 49 126 57 113 84 196 101
307 31 207 -62 426 -222 520 -91 53 -252 78 -363 56z m140 -64 c19 -29 68 -40
111 -24 46 17 84 -9 84 -57 0 -40 20 -55 73 -55 50 0 71 -28 64 -85 -6 -44 7
-95 25 -95 18 0 48 -42 48 -68 0 -29 -23 -58 -50 -63 -8 -1 -32 1 -53 6 -30 6
-42 4 -54 -8 -14 -14 -11 -20 36 -65 57 -55 65 -88 30 -123 -16 -16 -29 -20
-53 -16 -23 4 -38 -1 -59 -19 -15 -12 -27 -26 -27 -30 0 -20 -36 -44 -65 -44
-45 0 -69 29 -62 77 6 52 -52 153 -89 153 -13 0 -29 9 -36 20 -18 29 -127 29
-153 0 -22 -24 -72 -26 -97 -3 -19 17 -24 59 -9 82 12 19 -23 98 -54 123 -40
31 -33 64 25 119 44 42 49 51 44 78 -9 42 35 87 74 76 15 -4 49 -7 75 -7 39 1
52 5 68 26 28 35 82 36 104 2z"/>
<path d="M661 1176 c-9 -10 -8 -16 3 -25 10 -9 16 -8 25 3 9 10 8 16 -3 25
-10 9 -16 8 -25 -3z"/>
<path d="M450 1120 c0 -15 5 -20 18 -18 9 2 17 10 17 18 0 8 -8 16 -17 18 -13
2 -18 -3 -18 -18z"/>
<path d="M568 1133 c-16 -2 -29 -11 -29 -19 -1 -8 -2 -19 -3 -24 -1 -6 13 -20
31 -31 l32 -21 20 33 c19 31 19 35 4 51 -9 10 -19 17 -22 17 -3 -1 -18 -4 -33
-6z"/>
<path d="M729 1123 c-10 -11 -4 -22 31 -58 24 -25 48 -45 54 -45 5 0 17 -7 27
-16 21 -19 89 -11 89 10 0 23 -37 48 -60 41 -26 -8 -68 17 -80 49 -10 28 -45
39 -61 19z"/>
<path d="M840 1120 c0 -15 5 -20 18 -18 9 2 17 10 17 18 0 8 -8 16 -17 18 -13
2 -18 -3 -18 -18z"/>
<path d="M658 1049 c-17 -29 -17 -31 1 -50 22 -24 59 -22 75 3 8 14 5 23 -19
48 -16 16 -31 30 -34 30 -3 0 -14 -14 -23 -31z"/>
<path d="M431 1036 c-9 -11 -10 -20 -1 -35 8 -17 20 -21 59 -21 67 0 83 21 38
49 -40 24 -79 27 -96 7z"/>
<path d="M975 1020 c-4 -6 -1 -17 5 -26 10 -11 16 -12 26 -3 11 9 11 15 3 25
-14 17 -25 18 -34 4z"/>
<path d="M360 960 c0 -15 5 -20 18 -18 9 2 17 10 17 18 0 8 -8 16 -17 18 -13
2 -18 -3 -18 -18z"/>
<path d="M590 960 c0 -15 5 -20 18 -18 9 2 17 10 17 18 0 8 -8 16 -17 18 -13
2 -18 -3 -18 -18z"/>
<path d="M770 960 c0 -15 5 -20 18 -18 9 2 17 10 17 18 0 8 -8 16 -17 18 -13
2 -18 -3 -18 -18z"/>
<path d="M893 949 c-56 -13 -63 -36 -21 -72 l33 -28 22 48 c12 26 22 51 22 56
1 8 0 8 -56 -4z"/>
<path d="M426 916 c-14 -22 -14 -28 -1 -60 9 -20 19 -36 24 -36 8 0 74 51 105
81 19 18 -16 39 -64 39 -39 0 -50 -4 -64 -24z"/>
<path d="M667 933 c-4 -3 -7 -14 -7 -24 0 -21 31 -89 40 -89 3 0 17 18 29 41
22 38 22 41 5 60 -17 19 -54 26 -67 12z"/>
<path d="M970 884 c-15 -36 -19 -59 -13 -65 14 -14 43 0 43 21 0 10 7 23 15
30 13 11 13 15 -1 41 -8 16 -16 29 -18 29 -2 0 -14 -25 -26 -56z"/>
<path d="M547 837 c-27 -23 -45 -46 -41 -50 4 -4 35 -7 70 -7 46 0 63 4 68 15
7 18 -23 85 -38 85 -6 -1 -33 -20 -59 -43z"/>
<path d="M771 840 c-12 -22 -20 -44 -16 -50 8 -13 66 -1 87 18 20 17 18 24
-21 51 l-28 20 -22 -39z"/>
<path d="M1042 823 c2 -10 10 -18 18 -18 8 0 16 8 18 18 2 12 -3 17 -18 17
-15 0 -20 -5 -18 -17z"/>
<path d="M887 794 c-14 -15 -6 -34 14 -34 14 0 19 5 17 17 -3 18 -20 27 -31
17z"/>
<path d="M432 767 c-10 -11 -9 -17 3 -27 24 -20 45 4 24 26 -14 13 -17 13 -27
1z"/>
<path d="M683 764 c-7 -19 11 -39 26 -30 16 10 13 33 -4 40 -9 3 -18 -1 -22
-10z"/>
<path d="M793 743 c-46 -9 -48 -29 -7 -93 23 -36 46 -60 57 -60 9 0 26 -5 36
-12 26 -16 51 5 51 42 0 15 7 33 15 40 23 19 -2 50 -41 50 -18 0 -38 8 -49 20
-18 20 -22 21 -62 13z"/>
<path d="M974 629 c-9 -15 11 -33 30 -26 9 4 13 13 10 22 -7 17 -30 20 -40 4z"/>
<path d="M821 536 c-9 -10 -8 -16 3 -25 10 -9 16 -8 25 3 9 10 8 16 -3 25 -10
9 -16 8 -25 -3z"/>
</g>
</svg>
