<?xml version="1.0" standalone="no"?>
<!DOCTYPE svg PUBLIC "-//W3C//DTD SVG 20010904//EN"
 "http://www.w3.org/TR/2001/REC-SVG-20010904/DTD/svg10.dtd">
<svg version="1.0" xmlns="http://www.w3.org/2000/svg"
 width="128.000000pt" height="128.000000pt" viewBox="0 0 128.000000 128.000000"
 preserveAspectRatio="xMidYMid meet">

<g transform="translate(0.000000,128.000000) scale(0.100000,-0.100000)"
fill="#000000" stroke="none">
<path d="M480 1242 c0 -36 -2 -38 -58 -60 -71 -27 -70 -27 -99 0 l-24 22 -111
-112 -112 -111 22 -24 c27 -29 27 -28 0 -99 -22 -56 -24 -58 -60 -58 l-38 0 0
-160 0 -160 38 0 c36 0 38 -2 60 -58 27 -71 27 -70 0 -99 l-22 -24 112 -111
111 -112 24 22 c29 27 28 27 99 0 56 -22 58 -24 58 -60 l0 -38 160 0 160 0 0
38 c0 36 2 38 58 60 71 27 70 27 99 0 l24 -22 111 112 112 111 -22 24 c-27 29
-27 27 -1 98 21 58 22 59 60 59 l39 0 0 160 0 160 -38 0 c-36 0 -38 2 -60 58
-27 71 -27 70 0 99 l22 24 -112 111 -111 112 -24 -22 c-29 -27 -28 -27 -99 0
-56 22 -58 24 -58 60 l0 38 -160 0 -160 0 0 -38z m343 -209 c89 -42 168 -121
210 -210 30 -64 32 -74 32 -183 0 -109 -2 -119 -32 -183 -42 -89 -121 -168
-210 -210 -64 -30 -74 -32 -183 -32 -109 0 -119 2 -183 32 -42 20 -88 53 -123
87 -34 35 -67 81 -87 123 -30 64 -32 74 -32 183 0 109 2 119 32 183 37 77 116
163 184 198 80 41 119 49 224 46 88 -2 108 -6 168 -34z"/>
<path d="M545 986 c-107 -34 -186 -102 -232 -201 -24 -51 -28 -73 -28 -145 0
-72 4 -94 28 -146 130 -282 522 -281 654 1 24 51 28 73 28 145 0 72 -4 94 -28
145 -30 65 -81 124 -138 160 -78 50 -199 68 -284 41z m142 -98 c93 -77 149
-176 160 -283 22 -213 -225 -330 -364 -172 -100 114 -49 323 110 455 22 17 43
32 47 32 4 0 25 -15 47 -32z"/>
<path d="M561 743 c-17 -25 -31 -52 -31 -58 0 -6 16 -19 35 -28 l35 -17 0 75
c0 41 -2 75 -4 75 -2 0 -18 -21 -35 -47z"/>
<path d="M680 715 l0 -75 35 17 c19 9 35 22 35 28 0 12 -59 105 -66 105 -2 0
-4 -34 -4 -75z"/>
<path d="M510 564 c0 -44 24 -86 61 -108 l29 -17 0 58 0 59 -45 22 -45 22 0
-36z"/>
<path d="M723 577 l-43 -21 0 -58 0 -58 25 12 c36 16 67 70 63 111 l-3 34 -42
-20z"/>
</g>
</svg>
