<?xml version="1.0" standalone="no"?>
<!DOCTYPE svg PUBLIC "-//W3C//DTD SVG 20010904//EN"
 "http://www.w3.org/TR/2001/REC-SVG-20010904/DTD/svg10.dtd">
<svg version="1.0" xmlns="http://www.w3.org/2000/svg"
 width="128.000000pt" height="128.000000pt" viewBox="0 0 128.000000 128.000000"
 preserveAspectRatio="xMidYMid meet">

<g transform="translate(0.000000,128.000000) scale(0.100000,-0.100000)"
fill="#000000" stroke="none">
<path d="M360 1196 c-6 -8 -10 -25 -8 -38 2 -18 9 -23 34 -24 17 0 45 -6 62
-13 28 -12 31 -17 34 -65 4 -67 22 -62 26 8 3 53 2 54 -35 77 -21 13 -40 27
-41 31 -7 16 -34 38 -46 38 -8 0 -19 -7 -26 -14z"/>
<path d="M854 1183 c-3 -10 -23 -29 -45 -41 -40 -23 -40 -23 -37 -78 4 -69 22
-75 26 -8 3 46 6 53 30 63 15 5 41 11 57 13 26 3 30 7 30 33 0 25 -4 30 -28
33 -21 3 -30 -1 -33 -15z"/>
<path d="M612 1168 c-15 -15 -16 -54 -2 -63 6 -3 10 -21 10 -40 0 -18 3 -40 6
-49 12 -32 24 -15 24 34 0 28 4 50 10 50 16 0 23 49 10 65 -15 18 -42 19 -58
3z"/>
<path d="M402 886 l-102 -103 0 -129 0 -129 103 -103 102 -102 135 0 135 0 98
98 97 97 0 140 0 140 -98 98 -97 97 -136 0 -135 0 -102 -104z m435 -28 l83
-83 0 -120 0 -120 -82 -82 -83 -83 -115 0 -115 0 -82 82 -83 83 0 120 0 120
82 82 83 83 115 0 115 0 82 -82z"/>
<path d="M462 837 l-72 -72 0 -110 0 -110 72 -72 72 -73 104 0 104 0 74 72 74
71 0 108 0 107 -71 76 -71 76 -107 0 -107 0 -72 -73z m227 8 c34 -17 41 -33
41 -88 0 -34 4 -44 23 -52 20 -9 22 -17 25 -109 2 -64 -1 -103 -9 -112 -15
-18 -239 -20 -257 -2 -8 8 -12 48 -12 114 0 94 2 103 20 109 15 5 20 15 20 43
1 90 73 137 149 97z"/>
<path d="M590 810 c-13 -13 -20 -33 -20 -60 l0 -40 65 0 65 0 0 43 c0 71 -63
104 -110 57z"/>
<path d="M530 590 l0 -90 110 0 110 0 0 90 0 90 -110 0 -110 0 0 -90z m133 59
c28 -15 37 -28 37 -58 0 -36 -28 -61 -66 -61 -67 0 -85 86 -24 117 31 15 27
15 53 2z"/>
<path d="M616 614 c-10 -9 -15 -23 -12 -31 3 -8 6 -17 6 -19 0 -2 11 -4 25 -4
29 0 43 25 28 48 -14 23 -29 25 -47 6z"/>
<path d="M106 944 c-9 -8 -16 -20 -16 -25 0 -19 21 -49 33 -49 7 0 24 -20 37
-45 25 -46 25 -46 75 -43 61 4 66 22 7 26 -35 3 -45 8 -57 32 -9 18 -12 40 -9
59 11 52 -34 81 -70 45z"/>
<path d="M1110 935 c-7 -8 -10 -25 -7 -37 4 -13 -2 -35 -14 -55 -17 -27 -27
-33 -55 -33 -24 0 -34 -5 -34 -15 0 -11 12 -15 44 -15 42 0 46 3 67 40 13 22
33 47 46 55 13 9 23 23 23 33 0 38 -46 56 -70 27z"/>
<path d="M1080 680 c-11 -11 -33 -20 -51 -20 -44 0 -32 -24 17 -31 21 -3 46
-9 55 -13 18 -8 49 17 49 39 0 15 -27 45 -41 45 -5 0 -18 -9 -29 -20z"/>
<path d="M146 674 c-9 -8 -16 -19 -16 -24 0 -13 30 -40 45 -40 8 0 17 5 20 10
3 6 19 10 35 10 36 0 61 10 54 21 -3 5 -20 9 -38 9 -19 0 -39 7 -46 15 -16 19
-35 19 -54 -1z"/>
<path d="M161 477 c-13 -24 -33 -48 -45 -53 -26 -11 -28 -52 -3 -68 25 -16 52
4 53 40 1 16 8 44 17 61 14 27 23 32 59 35 59 4 54 22 -7 26 -50 3 -50 3 -74
-41z"/>
<path d="M990 505 c0 -11 11 -15 39 -15 34 0 42 -5 59 -34 11 -19 18 -43 16
-53 -3 -10 1 -27 9 -37 17 -23 62 -15 69 12 7 24 -9 52 -28 52 -8 0 -27 20
-42 45 -26 43 -29 45 -74 45 -36 0 -48 -4 -48 -15z"/>
<path d="M480 261 c0 -36 -4 -44 -32 -62 -21 -12 -43 -18 -60 -15 -43 8 -74
-34 -46 -62 18 -18 45 -15 60 6 7 10 35 31 61 47 47 27 48 28 45 73 -4 59 -28
70 -28 13z"/>
<path d="M627 293 c-4 -3 -7 -19 -7 -34 0 -15 -4 -31 -10 -34 -15 -9 -12 -41
5 -55 21 -18 55 -3 55 25 0 13 -4 27 -10 30 -5 3 -10 22 -10 41 0 32 -8 42
-23 27z"/>
<path d="M770 247 c0 -47 3 -57 20 -62 11 -4 36 -22 55 -42 35 -37 60 -40 79
-10 17 27 -4 52 -45 53 -56 0 -77 18 -81 66 -5 65 -28 61 -28 -5z"/>
</g>
</svg>
