<?xml version="1.0" standalone="no"?>
<!DOCTYPE svg PUBLIC "-//W3C//DTD SVG 20010904//EN"
 "http://www.w3.org/TR/2001/REC-SVG-20010904/DTD/svg10.dtd">
<svg version="1.0" xmlns="http://www.w3.org/2000/svg"
 width="128.000000pt" height="128.000000pt" viewBox="0 0 128.000000 128.000000"
 preserveAspectRatio="xMidYMid meet">

<g transform="translate(0.000000,128.000000) scale(0.100000,-0.100000)"
fill="#000000" stroke="none">
<path d="M455 1266 c-16 -7 -98 -83 -182 -167 -164 -167 -178 -190 -153 -263
26 -80 103 -120 185 -98 38 10 42 9 73 -21 l32 -31 80 79 80 79 -32 33 -32 33
69 70 69 70 136 0 135 0 0 85 0 85 -138 0 c-134 0 -139 1 -173 26 -41 32 -106
40 -149 20z"/>
<path d="M1056 1256 c-45 -27 -75 -76 -76 -124 0 -49 35 -110 75 -129 35 -17
35 -17 35 -83 0 -66 0 -67 -37 -91 -51 -32 -75 -82 -70 -138 8 -75 65 -125 97
-86 11 14 11 21 -3 45 -36 60 -7 130 53 130 60 0 89 -70 53 -130 -33 -57 30
-82 70 -29 47 64 26 162 -45 208 -38 24 -38 25 -38 91 0 66 0 66 35 83 39 19
75 79 75 127 0 50 -35 107 -80 130 -52 26 -96 25 -144 -4z"/>
<path d="M616 755 c-27 -9 -74 -49 -145 -119 l-106 -106 -76 0 c-156 0 -233
-32 -270 -114 -34 -74 -20 -146 39 -208 19 -20 48 -40 64 -43 25 -6 28 -11 28
-46 0 -39 0 -39 -41 -39 -22 0 -49 -5 -60 -10 -23 -13 -25 -55 -3 -64 20 -8
488 -8 508 0 22 9 20 51 -3 64 -11 5 -38 10 -60 10 -40 0 -41 1 -41 33 0 30 4
34 48 49 39 14 75 45 199 170 125 128 153 161 163 197 26 98 -36 205 -133 229
-57 15 -62 15 -111 -3z m88 -151 c9 -8 16 -19 16 -24 0 -11 -29 -40 -40 -40
-11 0 -40 29 -40 40 0 11 29 40 40 40 5 0 16 -7 24 -16z m-466 -260 c4 -27
-21 -47 -48 -39 -20 6 -28 44 -13 59 15 15 58 1 61 -20z"/>
</g>
</svg>
