<?xml version="1.0" standalone="no"?>
<!DOCTYPE svg PUBLIC "-//W3C//DTD SVG 20010904//EN"
 "http://www.w3.org/TR/2001/REC-SVG-20010904/DTD/svg10.dtd">
<svg version="1.0" xmlns="http://www.w3.org/2000/svg"
 width="128.000000pt" height="128.000000pt" viewBox="0 0 128.000000 128.000000"
 preserveAspectRatio="xMidYMid meet">

<g transform="translate(0.000000,128.000000) scale(0.100000,-0.100000)"
fill="#000000" stroke="none">
<path d="M132 1268 c-13 -13 -16 -75 -6 -102 3 -9 12 -16 20 -16 8 0 14 -9 14
-21 0 -47 17 -59 85 -59 l65 0 0 -29 c0 -20 -16 -51 -48 -93 -56 -74 -89 -148
-105 -229 -10 -55 -12 -59 -39 -59 l-28 0 0 84 c0 74 2 85 19 91 31 10 37 97
7 117 -19 13 -93 9 -105 -6 -7 -8 -11 -34 -9 -58 2 -33 8 -45 25 -53 21 -9 23
-17 25 -110 l3 -100 46 -3 47 -3 7 -45 c9 -63 38 -144 69 -192 14 -23 26 -44
26 -47 0 -3 -36 -5 -80 -5 l-80 0 0 -46 c0 -37 -5 -50 -25 -66 -31 -24 -35
-86 -7 -111 25 -23 85 -22 105 1 26 29 22 87 -8 110 -15 12 -25 30 -25 46 0
26 0 26 81 26 75 0 84 -2 119 -30 68 -54 207 -110 272 -110 13 0 18 -8 18 -30
l0 -30 -83 0 c-72 0 -84 3 -95 21 -11 17 -21 20 -65 17 -48 -3 -52 -5 -60 -34
-7 -22 -5 -40 4 -60 12 -25 21 -29 62 -32 42 -3 48 0 58 22 11 24 16 25 113
28 l101 3 3 48 c2 37 7 47 20 47 33 0 135 31 184 55 28 14 51 25 53 25 2 0 5
-19 7 -42 l3 -43 73 -3 c54 -2 72 -6 72 -17 0 -33 86 -48 114 -19 21 20 21 88
0 108 -28 29 -114 14 -114 -19 0 -11 -13 -15 -55 -15 l-55 0 0 41 c0 34 8 50
44 93 80 92 126 214 126 328 0 58 0 58 30 58 l30 0 0 -99 c0 -88 -2 -99 -19
-104 -26 -6 -36 -58 -19 -94 11 -23 21 -29 54 -31 53 -4 74 16 74 68 0 31 -5
43 -25 56 -23 15 -25 21 -27 127 l-3 112 -52 3 -52 3 -17 52 c-9 29 -29 73
-45 99 -28 47 -28 47 -6 50 18 2 23 10 25 46 3 41 4 42 38 42 23 0 34 -5 34
-15 0 -33 86 -48 114 -19 21 20 21 88 0 108 -28 29 -114 14 -114 -19 0 -10
-15 -15 -52 -17 l-53 -3 -3 -42 c-4 -55 -26 -57 -85 -9 -73 59 -210 116 -279
116 -13 0 -18 8 -18 30 l0 30 89 0 c80 0 90 -2 103 -22 20 -30 93 -32 114 -3
19 25 18 80 -2 99 -31 31 -124 13 -124 -24 0 -5 -48 -11 -107 -12 l-108 -3 -3
-46 -3 -47 -47 -7 c-57 -8 -148 -41 -184 -66 -35 -25 -36 -24 -40 14 l-3 32
-67 3 c-60 3 -68 5 -68 22 0 11 6 20 14 20 8 0 17 7 20 16 10 27 7 89 -6 102
-16 16 -90 16 -106 0z m660 -326 c76 -37 120 -82 157 -162 22 -46 26 -69 26
-140 0 -102 -28 -173 -95 -240 -67 -67 -138 -95 -240 -95 -71 0 -94 4 -140 26
-80 37 -125 81 -162 157 -79 161 -27 350 122 440 74 44 102 52 190 49 62 -2
87 -8 142 -35z"/>
<path d="M560 931 c-86 -28 -150 -82 -191 -161 -20 -37 -24 -60 -24 -130 0
-73 4 -92 27 -135 31 -60 77 -104 138 -136 65 -34 195 -34 260 0 61 32 107 76
138 136 23 43 27 62 27 135 0 70 -4 93 -24 130 -54 104 -142 161 -256 166 -38
2 -81 0 -95 -5z m40 -87 c5 -26 9 -29 40 -29 30 0 36 4 38 25 7 51 41 48 42
-3 0 -10 16 -33 35 -51 41 -39 47 -89 16 -127 -19 -23 -19 -24 0 -48 31 -39
25 -88 -16 -127 -19 -18 -35 -41 -35 -51 -1 -51 -35 -54 -42 -3 -2 21 -8 25
-38 25 -31 0 -35 -3 -40 -30 -7 -41 -34 -40 -38 3 -3 29 -6 32 -38 32 -41 0
-48 26 -9 36 l25 6 0 133 0 133 -25 6 c-39 10 -32 36 10 36 32 0 35 3 35 28 0
52 31 56 40 6z"/>
<path d="M580 710 l0 -60 49 0 c82 0 121 21 121 67 0 39 -26 53 -101 53 l-69
0 0 -60z"/>
<path d="M580 555 l0 -55 69 0 c76 0 101 13 101 55 0 42 -25 55 -101 55 l-69
0 0 -55z"/>
</g>
</svg>
