<?xml version="1.0" encoding="UTF-8"?>
<svg version="1.1" xmlns="http://www.w3.org/2000/svg" width="128" height="128">
<path d="M0 0 C8.20770735 5.72667034 12.899924 12.92152409 14.8046875 22.74609375 C14.8046875 24.06609375 14.8046875 25.38609375 14.8046875 26.74609375 C15.64 26.84083984 15.64 26.84083984 16.4921875 26.9375 C23.08864891 27.99605377 27.50029649 30.59527573 31.8046875 35.74609375 C34.99793531 42.00817712 34.82228197 49.51373484 32.7421875 56.12109375 C30.21669149 59.5427335 27.32907523 62.3512086 23.8046875 64.74609375 C23.1446875 64.74609375 22.4846875 64.74609375 21.8046875 64.74609375 C21.74861328 63.71548828 21.74861328 63.71548828 21.69140625 62.6640625 C21.62566406 61.76300781 21.55992188 60.86195312 21.4921875 59.93359375 C21.43417969 59.04027344 21.37617187 58.14695313 21.31640625 57.2265625 C20.72000758 54.33562239 20.07623159 53.56384008 17.8046875 51.74609375 C14.79231073 51.454894 11.98750922 51.34681608 8.97460938 51.3737793 C7.62055748 51.3683033 7.62055748 51.3683033 6.239151 51.36271667 C3.25038943 51.35459991 0.2621681 51.36823072 -2.7265625 51.3828125 C-4.80017089 51.38333097 -6.87377979 51.38281378 -8.9473877 51.38130188 C-13.29524056 51.38139165 -17.64290821 51.39183173 -21.99072266 51.40991211 C-27.56965156 51.43259937 -33.1483097 51.4331439 -38.72727203 51.42639446 C-43.00972916 51.42305626 -47.29212432 51.42968178 -51.5745697 51.4395237 C-53.63190893 51.44337855 -55.68925506 51.44452274 -57.74659729 51.44293785 C-60.6196104 51.44256784 -63.4922737 51.45516936 -66.36523438 51.47143555 C-67.2193541 51.46895813 -68.07347382 51.46648071 -68.95347595 51.46392822 C-72.87630923 51.49945468 -74.85778027 51.52107226 -78.1953125 53.74609375 C-78.99867363 56.62368443 -78.99867363 56.62368443 -79.3828125 59.87109375 C-79.54136719 60.96679688 -79.69992188 62.0625 -79.86328125 63.19140625 C-79.97285156 64.03445312 -80.08242187 64.8775 -80.1953125 65.74609375 C-86.19875524 64.79978837 -89.5654093 61.97362812 -93.0703125 57.18359375 C-94.9261868 51.51286673 -95.37120904 45.29274943 -93.46875 39.5546875 C-91.4374649 35.73157774 -88.89887572 32.93456293 -85.1953125 30.74609375 C-82.49314302 30.15232094 -79.97102863 29.93427789 -77.1953125 29.74609375 C-77.0715625 28.23015625 -77.0715625 28.23015625 -76.9453125 26.68359375 C-76.12870985 21.35418697 -74.23796382 17.38981859 -70.03515625 14.0078125 C-63.2822565 9.40705641 -58.32102132 8.21829091 -50.1953125 8.74609375 C-47.75016838 9.24289865 -45.55902582 9.92393259 -43.1953125 10.74609375 C-42.93621094 10.15828125 -42.67710938 9.57046875 -42.41015625 8.96484375 C-38.74196636 2.26538441 -32.03874006 -1.34150943 -24.98828125 -3.59765625 C-16.36481732 -5.62386875 -7.71690208 -4.40769674 0 0 Z " fill="#000000" transform="translate(94.1953125,9.25390625)"/>
<path d="M0 0 C30.69 0 61.38 0 93 0 C93 8.58 93 17.16 93 26 C91.16002305 27.83997695 88.57224004 27.1329663 86.12281799 27.14663696 C85.27863815 27.14618378 84.43445831 27.14573059 83.56469727 27.14526367 C82.6801889 27.14862228 81.79568054 27.1519809 80.8843689 27.15544128 C77.94503394 27.16498143 75.00575575 27.16689592 72.06640625 27.16796875 C70.03238399 27.17117917 67.99836197 27.17454307 65.96434021 27.17805481 C61.69456446 27.18405373 57.42480897 27.18589393 53.1550293 27.18530273 C47.67237637 27.18520106 42.18985281 27.19885527 36.70723057 27.21607494 C32.50460712 27.22717027 28.30201519 27.22922271 24.09937859 27.22869301 C22.07748913 27.22987678 20.05559895 27.23432063 18.03372383 27.24202538 C15.2106217 27.25177578 12.38780355 27.24896694 9.56469727 27.24291992 C8.72254166 27.24853943 7.88038605 27.25415894 7.01271057 27.25994873 C1.22831532 27.22831532 1.22831532 27.22831532 -1 25 C-1.24291992 22.69335938 -1.24291992 22.69335938 -1.23046875 19.84375 C-1.22853516 18.82152344 -1.22660156 17.79929687 -1.22460938 16.74609375 C-1.21236328 15.67488281 -1.20011719 14.60367188 -1.1875 13.5 C-1.18685547 12.42878906 -1.18621094 11.35757813 -1.18554688 10.25390625 C-1.14030114 2.28060228 -1.14030114 2.28060228 0 0 Z M12 9 C10.67254834 10.11258591 10.67254834 10.11258591 10.75 12.9375 C10.8325 13.948125 10.915 14.95875 11 16 C12.485 16.99 12.485 16.99 14 18 C15.20561184 17.01732141 15.20561184 17.01732141 15.09765625 15.15234375 C15.08605469 14.42144531 15.07445312 13.69054687 15.0625 12.9375 C15.041875 11.638125 15.02125 10.33875 15 9 C14.01 9 13.02 9 12 9 Z M23 9 C21.67254834 10.11258591 21.67254834 10.11258591 21.75 12.9375 C21.8325 13.948125 21.915 14.95875 22 16 C23.485 16.99 23.485 16.99 25 18 C26.20561184 17.01732141 26.20561184 17.01732141 26.09765625 15.15234375 C26.08605469 14.42144531 26.07445312 13.69054687 26.0625 12.9375 C26.041875 11.638125 26.02125 10.33875 26 9 C25.01 9 24.02 9 23 9 Z M43 11 C42.67 12.32 42.34 13.64 42 15 C54.87 15 67.74 15 81 15 C80.505 13.02 80.505 13.02 80 11 C67.79 11 55.58 11 43 11 Z " fill="#000000" transform="translate(19,96)"/>
<path d="M0 0 C0.84215561 0.00561951 1.68431122 0.01123901 2.55198669 0.01702881 C3.43824738 0.01513046 4.32450806 0.01323212 5.23762512 0.01127625 C8.17640438 0.00756188 11.11493827 0.01828127 14.05369568 0.02947998 C16.08868379 0.03067142 18.12367245 0.03112502 20.15866089 0.03086853 C24.42668594 0.03243449 28.69462724 0.04073335 32.96263123 0.05413818 C38.44644455 0.07113894 43.93016583 0.07495229 49.41400242 0.074193 C53.61658617 0.07446429 57.8191496 0.07993869 62.02172661 0.08719444 C64.04443648 0.09038701 66.06714866 0.09234988 68.08986092 0.09308815 C70.91060981 0.0952449 73.73125904 0.10397433 76.55198669 0.11468506 C77.39616653 0.11423187 78.24034637 0.11377869 79.11010742 0.11331177 C84.87281518 0.14547448 84.87281518 0.14547448 85.98728943 1.25994873 C86.08688563 3.10153896 86.11809353 4.9469184 86.12010193 6.79119873 C86.12139099 7.91139404 86.12268005 9.03158936 86.12400818 10.18572998 C86.12014099 11.36522217 86.1162738 12.54471436 86.11228943 13.75994873 C86.11615662 14.93944092 86.1200238 16.11893311 86.12400818 17.33416748 C86.12271912 18.45436279 86.12143005 19.57455811 86.12010193 20.72869873 C86.118974 21.76446045 86.11784607 22.80022217 86.11668396 23.86737061 C85.98728943 26.25994873 85.98728943 26.25994873 84.98728943 27.25994873 C82.12637125 27.35517291 79.28965322 27.38548199 76.42845154 27.37347412 C75.53097702 27.37362015 74.6335025 27.37376617 73.70883179 27.37391663 C70.72740809 27.37321715 67.74604603 27.36542314 64.76463318 27.35760498 C62.70340001 27.35574092 60.64216639 27.35431696 58.58093262 27.35331726 C53.14424933 27.3494911 47.70759257 27.33965999 42.2709198 27.32861328 C36.72781229 27.31840126 31.1847005 27.31382009 25.6415863 27.30877686 C14.75680899 27.29803781 3.87205141 27.28096022 -7.01271057 27.25994873 C-9.01420993 23.25695001 -8.19756266 18.16078142 -8.20021057 13.75994873 C-8.21245667 12.68873779 -8.22470276 11.61752686 -8.23731995 10.51385498 C-8.23925354 9.49162842 -8.24118713 8.46940186 -8.24317932 7.41619873 C-8.24728821 6.47582764 -8.25139709 5.53545654 -8.25563049 4.56658936 C-7.71828367 -0.53577524 -4.31613344 0.02360385 0 0 Z M4.98728943 9.25994873 C3.63289275 11.96874208 3.92227492 14.26928141 3.98728943 17.25994873 C5.30728943 17.58994873 6.62728943 17.91994873 7.98728943 18.25994873 C7.98728943 15.61994873 7.98728943 12.97994873 7.98728943 10.25994873 C6.99728943 9.92994873 6.00728943 9.59994873 4.98728943 9.25994873 Z M15.98728943 9.25994873 C14.63289275 11.96874208 14.92227492 14.26928141 14.98728943 17.25994873 C16.30728943 17.58994873 17.62728943 17.91994873 18.98728943 18.25994873 C18.98728943 15.61994873 18.98728943 12.97994873 18.98728943 10.25994873 C17.99728943 9.92994873 17.00728943 9.59994873 15.98728943 9.25994873 Z M34.98728943 12.25994873 C35.31728943 13.57994873 35.64728943 14.89994873 35.98728943 16.25994873 C48.19728943 16.25994873 60.40728943 16.25994873 72.98728943 16.25994873 C73.31728943 14.93994873 73.64728943 13.61994873 73.98728943 12.25994873 C61.11728943 12.25994873 48.24728943 12.25994873 34.98728943 12.25994873 Z " fill="#000000" transform="translate(26.012710571289063,63.74005126953125)"/>
</svg>
