<?xml version="1.0" standalone="no"?>
<!DOCTYPE svg PUBLIC "-//W3C//DTD SVG 20010904//EN"
 "http://www.w3.org/TR/2001/REC-SVG-20010904/DTD/svg10.dtd">
<svg version="1.0" xmlns="http://www.w3.org/2000/svg"
 width="128.000000pt" height="128.000000pt" viewBox="0 0 128.000000 128.000000"
 preserveAspectRatio="xMidYMid meet">

<g transform="translate(0.000000,128.000000) scale(0.100000,-0.100000)"
fill="#000000" stroke="none">
<path d="M310 1075 c0 -76 -29 -105 -105 -105 -73 0 -71 -18 3 -22 l57 -3 3
-92 3 -93 -61 0 c-47 0 -60 -3 -60 -15 0 -12 13 -15 60 -15 l60 0 0 -90 0 -90
-60 0 c-47 0 -60 -3 -60 -15 0 -12 13 -15 60 -15 l61 0 -3 -92 -3 -93 -57 -3
c-74 -4 -76 -22 -3 -22 45 0 58 -4 80 -25 21 -22 25 -35 25 -80 0 -73 18 -71
22 3 l3 57 93 3 92 3 0 -61 c0 -47 3 -60 15 -60 12 0 15 13 15 60 l0 60 90 0
90 0 0 -60 c0 -47 3 -60 15 -60 12 0 15 13 15 60 l0 61 93 -3 92 -3 3 -57 c4
-74 22 -76 22 -3 0 45 4 58 25 80 22 21 35 25 80 25 73 0 71 18 -2 22 l-58 3
-3 93 -3 92 61 0 c47 0 60 3 60 15 0 12 -13 15 -60 15 l-60 0 0 90 0 90 60 0
c47 0 60 3 60 15 0 12 -13 15 -60 15 l-61 0 3 93 3 92 58 3 c73 4 75 22 2 22
-45 0 -58 4 -80 25 -21 22 -25 35 -25 80 0 73 -18 71 -22 -2 l-3 -58 -92 -3
-93 -3 0 61 c0 47 -3 60 -15 60 -12 0 -15 -13 -15 -60 l0 -60 -90 0 -90 0 0
60 c0 47 -3 60 -15 60 -12 0 -15 -13 -15 -60 l0 -61 -92 3 -93 3 -3 58 c-4 73
-22 75 -22 2z m608 -157 c17 -17 17 -539 0 -556 -17 -17 -539 -17 -556 0 -17
17 -17 539 0 556 17 17 539 17 556 0z"/>
<path d="M382 898 c-17 -17 -17 -499 0 -516 17 -17 499 -17 516 0 17 17 17
499 0 516 -17 17 -499 17 -516 0z m286 -44 c12 -8 29 -28 37 -45 14 -25 21
-29 60 -29 72 0 91 -35 58 -105 -16 -33 -16 -37 0 -70 21 -45 21 -64 0 -87
-11 -12 -30 -18 -59 -18 -38 0 -45 -4 -59 -30 -8 -16 -27 -37 -40 -46 -23 -15
-27 -15 -50 0 -13 9 -32 30 -40 46 -13 26 -21 30 -57 30 -45 0 -78 22 -78 51
0 10 8 34 17 54 16 33 16 37 0 70 -33 70 -14 105 58 105 39 0 46 4 60 29 13
27 50 61 65 61 3 0 16 -7 28 -16z"/>
<path d="M611 814 c-26 -34 -19 -44 29 -44 21 0 41 4 44 9 6 10 -31 61 -44 61
-5 0 -18 -12 -29 -26z"/>
<path d="M488 753 c-20 -5 -23 -34 -8 -64 14 -26 23 -24 43 10 31 52 20 69
-35 54z"/>
<path d="M740 744 c0 -19 31 -74 42 -74 11 0 28 36 28 58 0 12 -9 22 -22 26
-37 9 -48 7 -48 -10z"/>
<path d="M620 733 c-8 -3 -27 -15 -42 -25 -24 -17 -28 -26 -28 -68 0 -43 4
-51 31 -71 39 -28 81 -29 117 -2 23 17 27 27 27 73 0 45 -4 55 -25 71 -30 21
-60 29 -80 22z m58 -55 c7 -7 12 -24 12 -38 0 -33 -17 -50 -50 -50 -14 0 -31
5 -38 12 -7 7 -12 24 -12 38 0 14 5 31 12 38 15 15 61 15 76 0z"/>
<path d="M620 654 c-11 -12 -10 -18 3 -32 16 -15 18 -15 34 0 13 14 14 20 3
32 -7 9 -16 16 -20 16 -4 0 -13 -7 -20 -16z"/>
<path d="M480 591 c-17 -32 -12 -58 13 -65 52 -14 61 3 30 55 -20 34 -29 36
-43 10z"/>
<path d="M757 581 c-31 -52 -22 -69 31 -55 24 7 29 33 12 65 -14 26 -23 24
-43 -10z"/>
<path d="M595 501 c-3 -5 6 -22 20 -38 l25 -28 25 28 c31 35 25 47 -25 47 -21
0 -41 -4 -45 -9z"/>
</g>
</svg>
