<?xml version="1.0" encoding="UTF-8"?>
<svg version="1.1" xmlns="http://www.w3.org/2000/svg" width="128" height="128">
<path d="M0 0 C0.83184814 0.00684814 1.66369629 0.01369629 2.52075195 0.02075195 C8.87825821 0.18685961 14.01103804 1.20089293 19.5625 4.4375 C20.64917969 5.05044922 20.64917969 5.05044922 21.7578125 5.67578125 C23.74882433 6.86230675 25.6566348 8.11970582 27.5625 9.4375 C28.8309375 10.2728125 28.8309375 10.2728125 30.125 11.125 C38.85148318 19.40397122 43.5846967 29.42905032 44.03295898 41.37792969 C44.20762387 56.14216475 40.38640198 66.39895556 30.1875 77.0625 C27.71502747 79.48552308 25.13966394 81.50648696 22.3125 83.5 C18.82449986 86.00784506 17.11762549 88.35529559 15.5625 92.4375 C11.2725 92.4375 6.9825 92.4375 2.5625 92.4375 C2.5625 82.8675 2.5625 73.2975 2.5625 63.4375 C10.25 62.75 10.25 62.75 12.64331055 62.5715332 C16.61335291 62.14335693 18.30065324 61.65192844 21.49609375 59.03515625 C23.8195618 56.11435048 24.83064249 54.09678753 25.5625 50.4375 C25.0675 46.9725 25.0675 46.9725 24.5625 43.4375 C17.3025 43.4375 10.0425 43.4375 2.5625 43.4375 C2.3671875 40.73567708 2.171875 38.03385417 1.9765625 35.33203125 C1.54748978 32.33257009 1.01769928 30.09843583 -0.4375 27.4375 C-7.10134939 23.47703779 -15.96730079 23.87289192 -23.4375 24.4375 C-24.0975 24.7675 -24.7575 25.0975 -25.4375 25.4375 C-25.79826925 30.50831218 -25.9994882 34.31352359 -23.6875 38.9375 C-17.81348521 45.4641831 -13.03054467 43.75228252 -3.4375 44.4375 C-3.4375 60.2775 -3.4375 76.1175 -3.4375 92.4375 C-7.7275 92.4375 -12.0175 92.4375 -16.4375 92.4375 C-16.72625 91.426875 -17.015 90.41625 -17.3125 89.375 C-19.2550221 84.79357995 -22.68415452 83.02374573 -26.734375 80.3828125 C-35.31375427 74.20863493 -41.83951304 65.36165679 -44.12109375 54.9609375 C-45.92767038 40.55293129 -43.98243901 28.38832272 -35.4375 16.4375 C-26.63915975 5.54739748 -13.85159286 -0.17630069 0 0 Z " fill="#000000" transform="translate(64.4375,-0.4375)"/>
<path d="M0 0 C12.54 0 25.08 0 38 0 C38 3.63 38 7.26 38 11 C25.46 11 12.92 11 0 11 C0 7.37 0 3.74 0 0 Z " fill="#000000" transform="translate(45,98)"/>
<path d="M0 0 C9.24 0 18.48 0 28 0 C28 7 28 7 26.06640625 9.90234375 C21.91644214 12.7412364 18.84984425 12.70919632 13.9375 12.5625 C12.73383789 12.57893555 12.73383789 12.57893555 11.50585938 12.59570312 C7.63997271 12.54758005 5.63952931 12.48940506 2.50390625 10.08984375 C-0.3660842 6.1016752 0 5.68046293 0 0 Z " fill="#000000" transform="translate(50,116)"/>
<path d="M0 0 C1.08667969 0.01804688 2.17335938 0.03609375 3.29296875 0.0546875 C4.54013672 0.08949219 4.54013672 0.08949219 5.8125 0.125 C5.4923769 3.08613868 5.19419741 4.71387265 3.140625 6.92578125 C0.12358647 8.47985982 -2.06182562 8.42257634 -5.4375 8.3125 C-7.05398437 8.27189453 -7.05398437 8.27189453 -8.703125 8.23046875 C-9.52296875 8.19566406 -10.3428125 8.16085938 -11.1875 8.125 C-9.22705532 1.1880419 -7.12893805 -0.1533105 0 0 Z " fill="#000000" transform="translate(78.1875,47.875)"/>
<path d="M0 0 C2.08218362 -0.10832169 4.16599129 -0.18573541 6.25 -0.25 C7.99023438 -0.31960937 7.99023438 -0.31960937 9.765625 -0.390625 C13 0 13 0 15.421875 1.828125 C17 4 17 4 17 7 C14.73078464 7.13489391 12.4592933 7.23193995 10.1875 7.3125 C8.29064453 7.39951172 8.29064453 7.39951172 6.35546875 7.48828125 C3 7 3 7 1.05078125 4.60546875 C0 2 0 2 0 0 Z " fill="#000000" transform="translate(44,30)"/>
</svg>
