<?xml version="1.0" standalone="no"?>
<!DOCTYPE svg PUBLIC "-//W3C//DTD SVG 20010904//EN"
 "http://www.w3.org/TR/2001/REC-SVG-20010904/DTD/svg10.dtd">
<svg version="1.0" xmlns="http://www.w3.org/2000/svg"
 width="128.000000pt" height="128.000000pt" viewBox="0 0 128.000000 128.000000"
 preserveAspectRatio="xMidYMid meet">

<g transform="translate(0.000000,128.000000) scale(0.100000,-0.100000)"
fill="#000000" stroke="none">
<path d="M195 1230 c-118 -21 -175 -62 -140 -100 37 -41 101 -55 250 -55 129
0 144 2 190 25 55 27 66 51 39 81 -38 42 -227 69 -339 49z"/>
<path d="M870 1229 c-62 -11 -119 -37 -133 -60 -31 -51 54 -91 208 -97 125 -5
208 8 256 41 41 28 45 41 20 66 -44 44 -233 71 -351 50z"/>
<path d="M40 995 c0 -74 3 -87 22 -105 30 -27 104 -48 197 -56 l76 -6 17 31
c22 40 70 68 141 83 l57 12 0 63 0 64 -27 -14 c-103 -52 -321 -55 -432 -6 -24
10 -45 19 -47 19 -2 0 -4 -38 -4 -85z m164 -55 c5 -5 6 -15 3 -23 -5 -12 -14
-13 -44 -6 -21 5 -41 9 -45 9 -5 0 -8 9 -8 21 0 19 4 20 43 14 23 -4 46 -11
51 -15z m134 -22 c3 -15 -4 -18 -37 -18 -35 0 -41 3 -41 21 0 17 5 20 37 17
27 -2 39 -8 41 -20z"/>
<path d="M730 1017 l0 -63 58 -12 c70 -15 118 -43 140 -83 l17 -31 76 6 c93 8
167 29 197 56 19 18 22 31 22 105 0 47 -2 85 -4 85 -2 0 -23 -9 -47 -19 -111
-49 -329 -46 -431 6 l-28 14 0 -64z m440 -77 c0 -16 -9 -21 -42 -27 -52 -8
-53 -7 -53 14 0 17 29 30 73 32 16 1 22 -5 22 -19z m-152 -22 c3 -15 -4 -18
-37 -18 -39 0 -53 14 -34 34 14 14 68 1 71 -16z"/>
<path d="M535 910 c-117 -21 -168 -57 -140 -98 30 -41 98 -57 250 -57 122 0
146 3 187 22 89 41 80 87 -24 118 -65 19 -206 27 -273 15z"/>
<path d="M40 760 c0 -71 3 -90 18 -103 31 -28 104 -49 195 -54 l87 -6 0 95 0
95 -89 6 c-61 4 -109 13 -150 30 l-61 25 0 -88z m143 -46 c18 -4 27 -13 27
-26 0 -19 -4 -20 -42 -14 -24 4 -47 11 -52 16 -14 14 2 42 21 36 10 -3 30 -8
46 -12z"/>
<path d="M1176 822 c-38 -15 -89 -25 -147 -29 l-89 -6 0 -95 0 -95 88 6 c94 6
170 28 196 56 13 15 16 36 14 102 l-3 84 -59 -23z m-9 -108 c8 -22 -6 -32 -54
-40 -39 -6 -43 -5 -43 14 0 15 10 23 38 30 52 14 52 14 59 -4z"/>
<path d="M380 676 c0 -81 1 -85 29 -109 41 -34 119 -51 231 -51 112 0 190 17
231 51 28 24 29 28 29 109 0 46 -2 84 -4 84 -2 0 -23 -9 -47 -19 -24 -11 -81
-25 -126 -31 -98 -13 -222 0 -292 31 -24 10 -45 19 -47 19 -2 0 -4 -38 -4 -84z
m164 -56 c5 -5 6 -15 3 -23 -5 -12 -14 -13 -44 -6 -21 5 -41 9 -45 9 -5 0 -8
10 -8 21 0 20 4 21 43 15 23 -4 46 -11 51 -16z m283 3 c5 -15 -22 -30 -62 -34
-24 -3 -30 0 -30 16 0 30 83 46 92 18z m-149 -25 c3 -15 -4 -18 -37 -18 -39 0
-53 14 -34 34 14 14 68 1 71 -16z"/>
<path d="M40 525 c0 -74 3 -87 22 -105 30 -27 104 -48 199 -56 l79 -7 0 100 0
99 -67 2 c-75 2 -153 17 -195 38 -15 8 -29 14 -33 14 -3 0 -5 -38 -5 -85z
m162 -51 c19 -12 7 -34 -19 -34 -49 0 -73 11 -73 32 0 18 4 20 42 14 22 -4 45
-9 50 -12z"/>
<path d="M1206 598 c-35 -20 -121 -38 -193 -40 l-73 -2 0 -99 0 -100 79 7 c95
8 169 29 199 56 19 18 22 31 22 105 0 47 -3 85 -7 85 -5 0 -16 -6 -27 -12z
m-36 -127 c0 -20 -25 -31 -73 -31 -36 0 -34 31 3 41 48 13 70 10 70 -10z"/>
<path d="M380 440 c0 -74 2 -83 25 -104 39 -36 107 -51 235 -51 128 0 196 15
235 51 23 21 25 30 25 104 0 44 -3 80 -7 80 -5 0 -33 -10 -63 -22 -47 -19 -74
-22 -190 -22 -116 0 -143 3 -190 22 -30 12 -58 22 -62 22 -5 0 -8 -36 -8 -80z
m143 -46 c18 -4 27 -13 27 -26 0 -19 -4 -20 -42 -14 -24 4 -47 11 -52 16 -14
14 2 42 21 36 10 -3 30 -8 46 -12z m304 0 c8 -22 -6 -32 -54 -40 -39 -6 -43
-5 -43 14 0 15 10 23 38 30 52 14 52 14 59 -4z m-149 -31 c-2 -13 -13 -18 -38
-18 -25 0 -36 5 -38 18 -3 14 4 17 38 17 34 0 41 -3 38 -17z"/>
<path d="M380 208 c0 -98 10 -114 95 -144 70 -24 260 -24 330 0 85 30 95 46
95 144 0 76 -2 83 -17 77 -152 -64 -334 -64 -485 0 -16 6 -18 -1 -18 -77z
m162 -54 c20 -13 7 -34 -23 -34 -39 0 -69 16 -69 37 0 13 7 14 42 9 22 -4 45
-9 50 -12z m288 1 c0 -19 -31 -35 -70 -35 -24 0 -31 4 -28 17 5 28 98 46 98
18z m-152 -27 c3 -15 -4 -18 -37 -18 -39 0 -53 14 -34 34 14 14 68 1 71 -16z"/>
</g>
</svg>
