<?xml version="1.0" encoding="UTF-8"?>
<svg version="1.1" xmlns="http://www.w3.org/2000/svg" width="128" height="128">
<path d="M0 0 C2.64 0 5.28 0 8 0 C8 2.31 8 4.62 8 7 C18.56 7 29.12 7 40 7 C41.711875 10.7125 43.42375 14.425 45.1875 18.25 C45.71625732 19.3937207 46.24501465 20.53744141 46.78979492 21.71582031 C56 41.7530154 56 41.7530154 56 45 C53.03 45 50.06 45 47 45 C43.4844586 38.07438344 40.0643673 31.13817323 37 24 C34.94731055 26.05268945 34.22590435 27.46640074 33.08984375 30.09765625 C32.73986328 30.89880859 32.38988281 31.69996094 32.02929688 32.52539062 C31.66900391 33.36263672 31.30871094 34.19988281 30.9375 35.0625 C30.21948081 36.72093371 29.49953007 38.37853293 28.77734375 40.03515625 C28.46015381 40.7712915 28.14296387 41.50742676 27.81616211 42.26586914 C27 44 27 44 26 45 C22.99996555 45.14177857 20.00242765 45.04228771 17 45 C19.08057828 38.2373454 21.73330931 31.86056561 24.6875 25.4375 C26.110625 22.323125 27.53375 19.20875 29 16 C22.07 15.67 15.14 15.34 8 15 C8 36.45 8 57.9 8 80 C24.5 80 41 80 58 80 C58 82.64 58 85.28 58 88 C47.44 88 36.88 88 26 88 C27.31297122 93.98538237 27.31297122 93.98538237 31 96 C33.1482619 96.30723267 33.1482619 96.30723267 35.4375 96.375 C38.52626088 96.67634252 39.84287656 96.89786976 42.5 98.625 C44.51428079 101.81427792 44.86820792 104.24392582 45 108 C44.22106448 111.34942276 43.18070365 112.80897043 40.8125 115.3125 C37.18121002 117.49127399 35.17845873 117.58645035 31 117 C25.46153846 113.92307692 25.46153846 113.92307692 24 111 C23.92353699 109.58401833 23.86311218 108.16714117 23.8125 106.75 C23.3755067 102.02595171 21.80131638 100.51662843 18.30078125 97.55078125 C16.5966782 95.5191629 16.60206452 94.24423176 16.625 91.625 C16.74875 90.42875 16.8725 89.2325 17 88 C14.03 88 11.06 88 8 88 C8.03307069 91.23190821 8.10030943 94.45697755 8.1875 97.6875 C8.19330078 98.59951172 8.19910156 99.51152344 8.20507812 100.45117188 C8.34806517 106.175 8.34806517 106.175 11.51171875 110.83203125 C12.33285156 111.54746094 13.15398437 112.26289062 14 113 C14.91239336 116.43489266 14.68357774 119.52514651 14 123 C12.125 126.125 12.125 126.125 9 128 C3.97377154 128.98876625 0.29486216 128.7769173 -4.125 126.125 C-6.37866363 122.36889395 -6.59681096 119.80409853 -6.6640625 115.5 C-6 113 -6 113 -3.51171875 110.83203125 C0.14585959 106.70801212 -0.22147248 103.02872895 -0.1875 97.6875 C-0.16236328 96.75615234 -0.13722656 95.82480469 -0.11132812 94.86523438 C-0.05266248 92.57727405 -0.02341816 90.28859251 0 88 C-2.97 88 -5.94 88 -9 88 C-8.814375 89.794375 -8.814375 89.794375 -8.625 91.625 C-8.60206452 94.24423176 -8.5966782 95.5191629 -10.30078125 97.55078125 C-10.84089844 98.00839844 -11.38101563 98.46601562 -11.9375 98.9375 C-14.0113484 100.70268259 -14.89698708 101.49216437 -15.4453125 104.1953125 C-15.52258914 105.75630068 -15.59560315 107.31750653 -15.6640625 108.87890625 C-16.21427126 112.35289877 -18.32884563 113.91519659 -21 116 C-24.14911479 117.57455739 -26.52008816 117.34799118 -30 117 C-33.19886977 115.10437347 -35.36160051 113.65372633 -36.734375 110.09765625 C-37.49424672 106.13872459 -37.15324099 104.30648199 -35.3125 100.625 C-31.99090909 96.85454545 -31.99090909 96.85454545 -29 96 C-27.824375 96.020625 -26.64875 96.04125 -25.4375 96.0625 C-22.11425036 96.29986654 -22.11425036 96.29986654 -20.125 94.8125 C-18.6215554 92.62658297 -18.6215554 92.62658297 -18 88 C-28.56 88 -39.12 88 -50 88 C-50 85.36 -50 82.72 -50 80 C-33.5 80 -17 80 0 80 C0 58.55 0 37.1 0 15 C-10.395 15.495 -10.395 15.495 -21 16 C-19.700625 18.88878906 -19.700625 18.88878906 -18.375 21.8359375 C-17.54012295 23.6988209 -16.70652358 25.56227097 -15.87304688 27.42578125 C-15.29235113 28.72227868 -14.71032542 30.01818127 -14.12695312 31.31347656 C-13.28947601 33.17358729 -12.45677862 35.03577294 -11.625 36.8984375 C-11.12226562 38.01911621 -10.61953125 39.13979492 -10.1015625 40.29443359 C-9 43 -9 43 -9 45 C-11.97 45 -14.94 45 -18 45 C-19.294174 42.43873936 -20.58540784 39.87606642 -21.875 37.3125 C-22.23980469 36.59126953 -22.60460937 35.87003906 -22.98046875 35.12695312 C-24.8179242 31.46874636 -26.56138502 27.8388305 -28 24 C-31.1357447 27.66478138 -32.7798573 31.78964928 -34.625 36.1875 C-37.8841047 43.8841047 -37.8841047 43.8841047 -39 45 C-42.00003445 45.14177857 -44.99757235 45.04228771 -48 45 C-45.46279489 36.65561785 -41.91765536 28.86349092 -38.3125 20.9375 C-36.229375 16.338125 -34.14625 11.73875 -32 7 C-21.44 7 -10.88 7 0 7 C0 4.69 0 2.38 0 0 Z " fill="#000000" transform="translate(60,0)"/>
<path d="M0 0 C13.53 0 27.06 0 41 0 C41 7.24688166 40.13814597 10.61328801 35.421875 15.703125 C30.9488665 19.85375451 26.87468087 21.83882359 20.65234375 22.09765625 C13.8894493 21.83633884 8.93304273 19.64168176 4 15 C0.10954343 9.81971551 0 6.71667167 0 0 Z " fill="#000000" transform="translate(11,51)"/>
<path d="M0 0 C13.53 0 27.06 0 41 0 C41 6.71667167 40.89045657 9.81971551 37 15 C32.15057957 19.56299845 27.14874848 21.90812796 20.48046875 22.15625 C13.88054404 21.74050671 9.53347775 20.01383073 5.0625 15.0625 C0.61782497 9.60910439 0 7.46654913 0 0 Z " fill="#000000" transform="translate(76,51)"/>
</svg>
