<?xml version="1.0" encoding="UTF-8"?>
<svg version="1.1" xmlns="http://www.w3.org/2000/svg" width="128" height="128">
<path d="M0 0 C3.86825019 0.59374756 6.74894068 1.75167849 10.16015625 3.65234375 C11.11857422 4.18150391 12.07699219 4.71066406 13.06445312 5.25585938 C14.54848633 6.08827148 14.54848633 6.08827148 16.0625 6.9375 C18.03229548 8.03041053 20.00233793 9.12287609 21.97265625 10.21484375 C22.84156494 10.70073975 23.71047363 11.18663574 24.60571289 11.68725586 C26.71058594 12.84131953 28.85293624 13.92646812 31 15 C31 27.21 31 39.42 31 52 C27.19027557 50.47611023 23.70283914 48.88125589 20.078125 46.99609375 C18.97082031 46.42052734 17.86351562 45.84496094 16.72265625 45.25195312 C15.57667969 44.65318359 14.43070313 44.05441406 13.25 43.4375 C12.08855469 42.83486328 10.92710938 42.23222656 9.73046875 41.61132812 C1.13006525 37.13006525 1.13006525 37.13006525 0 36 C-0.08855161 33.3337397 -0.11524673 30.69352886 -0.09765625 28.02734375 C-0.0962413 27.22970108 -0.09482635 26.43205841 -0.09336853 25.61024475 C-0.08775316 23.05262565 -0.07519812 20.49509282 -0.0625 17.9375 C-0.05748698 16.20768355 -0.05292373 14.47786574 -0.04882812 12.74804688 C-0.03777875 8.49866447 -0.02050386 4.24934688 0 0 Z " fill="#000000" transform="translate(31,47)"/>
<path d="M0 0 C0 12.21 0 24.42 0 37 C-6.0328125 40.155625 -6.0328125 40.155625 -12.1875 43.375 C-14.07698364 44.3657251 -14.07698364 44.3657251 -16.00463867 45.37646484 C-17.0072876 45.89934082 -18.00993652 46.4222168 -19.04296875 46.9609375 C-20.57473755 47.76217041 -20.57473755 47.76217041 -22.13745117 48.57958984 C-24.69769298 49.84999384 -27.34631609 50.93852644 -30 52 C-30 39.79 -30 27.58 -30 15 C-17.6875 8.625 -17.6875 8.625 -13.81518555 6.62353516 C-12.8075415 6.10065918 -11.79989746 5.5777832 -10.76171875 5.0390625 C-9.73006592 4.50490723 -8.69841309 3.97075195 -7.63549805 3.42041016 C-1.28910278 0 -1.28910278 0 0 0 Z " fill="#000000" transform="translate(96,47)"/>
<path d="M0 0 C3.06787109 1.39868164 3.06787109 1.39868164 6.2734375 3.16015625 C7.42714844 3.78857422 8.58085938 4.41699219 9.76953125 5.06445312 C10.97145888 5.73027976 12.17328051 6.39629777 13.375 7.0625 C14.59982312 7.73322105 15.82507979 8.40315104 17.05078125 9.07226562 C20.03820824 10.7071174 23.02098128 12.3498915 26 14 C26 14.66 26 15.32 26 16 C25.3294458 16.34780518 24.6588916 16.69561035 23.96801758 17.05395508 C20.9153273 18.63850326 17.86390429 20.22547689 14.8125 21.8125 C13.75740234 22.35970703 12.70230469 22.90691406 11.61523438 23.47070312 C10.59365234 24.00244141 9.57207031 24.53417969 8.51953125 25.08203125 C7.58214111 25.56905518 6.64475098 26.0560791 5.67895508 26.55786133 C2.97035569 27.94633274 2.97035569 27.94633274 0.5300293 29.74487305 C-2.83399234 31.41373682 -4.42151575 31.02838159 -8 30 C-11.06787109 28.60131836 -11.06787109 28.60131836 -14.2734375 26.83984375 C-15.42714844 26.21142578 -16.58085938 25.58300781 -17.76953125 24.93554688 C-18.97145888 24.26972024 -20.17328051 23.60370223 -21.375 22.9375 C-22.59982312 22.26677895 -23.82507979 21.59684896 -25.05078125 20.92773438 C-28.03820824 19.2928826 -31.02098128 17.6501085 -34 16 C-34 15.34 -34 14.68 -34 14 C-33.3294458 13.65219482 -32.6588916 13.30438965 -31.96801758 12.94604492 C-28.9153273 11.36149674 -25.86390429 9.77452311 -22.8125 8.1875 C-21.75740234 7.64029297 -20.70230469 7.09308594 -19.61523438 6.52929688 C-18.08286133 5.73168945 -18.08286133 5.73168945 -16.51953125 4.91796875 C-15.58214111 4.43094482 -14.64475098 3.9439209 -13.67895508 3.44213867 C-10.97035569 2.05366726 -10.97035569 2.05366726 -8.5300293 0.25512695 C-5.16600766 -1.41373682 -3.57848425 -1.02838159 0 0 Z " fill="#000000" transform="translate(68,29)"/>
<path d="M0 0 C1.32 0 2.64 0 4 0 C4.10845027 3.04263267 4.18752063 6.08136204 4.25 9.125 C4.30027344 10.40890625 4.30027344 10.40890625 4.3515625 11.71875 C4.43779608 17.32393239 3.89018483 20.64669793 0 25 C-4.45927261 28.88861615 -9.20769821 28.35050318 -14.8125 28.1875 C-16.13797852 28.16719727 -16.13797852 28.16719727 -17.49023438 28.14648438 C-19.66042023 28.11129217 -21.83029033 28.05748985 -24 28 C-24 26.68 -24 25.36 -24 24 C-22.73542969 23.86722656 -21.47085938 23.73445313 -20.16796875 23.59765625 C-18.50779375 23.41944537 -16.84763852 23.24105037 -15.1875 23.0625 C-14.35412109 22.97548828 -13.52074219 22.88847656 -12.66210938 22.79882812 C-11.85966797 22.71181641 -11.05722656 22.62480469 -10.23046875 22.53515625 C-9.49207764 22.456604 -8.75368652 22.37805176 -7.99291992 22.29711914 C-5.79730622 22.02848004 -5.79730622 22.02848004 -3 21 C-1.55487991 16.66463974 -1.60977805 12.24893783 -1.39453125 7.71679688 C-1.10079169 2.20158338 -1.10079169 2.20158338 0 0 Z " fill="#000000" transform="translate(116,92)"/>
<path d="M0 0 C3.04263267 -0.10845027 6.08136204 -0.18752063 9.125 -0.25 C9.9809375 -0.28351562 10.836875 -0.31703125 11.71875 -0.3515625 C17.32393239 -0.43779608 20.64669793 0.10981517 25 4 C28.88861615 8.45927261 28.35050318 13.20769821 28.1875 18.8125 C28.16719727 20.13797852 28.16719727 20.13797852 28.14648438 21.49023438 C28.11129217 23.66042023 28.05748985 25.83029033 28 28 C26.68 28 25.36 28 24 28 C22.43886185 24.8777237 22.66313874 21.4974769 22.5 18.0625 C22.27153625 12.4514804 22.27153625 12.4514804 21 7 C14.10595459 4.96569152 7.15078767 4.45977992 0 4 C0 2.68 0 1.36 0 0 Z " fill="#000000" transform="translate(92,8)"/>
<path d="M0 0 C1.32 0 2.64 0 4 0 C4.07347656 1.39412109 4.07347656 1.39412109 4.1484375 2.81640625 C4.69677146 12.07660933 4.69677146 12.07660933 7 21 C13.9969173 22.74922933 20.80729161 23.53752467 28 24 C28 25.32 28 26.64 28 28 C24.95736733 28.10845027 21.91863796 28.18752063 18.875 28.25 C18.0190625 28.28351563 17.163125 28.31703125 16.28125 28.3515625 C10.67606761 28.43779608 7.35330207 27.89018483 3 24 C-0.88861615 19.54072739 -0.35050318 14.79230179 -0.1875 9.1875 C-0.17396484 8.30384766 -0.16042969 7.42019531 -0.14648438 6.50976562 C-0.11129217 4.33957977 -0.05748985 2.16970967 0 0 Z " fill="#000000" transform="translate(8,92)"/>
<path d="M0 0 C1.32547852 0.02030273 1.32547852 0.02030273 2.67773438 0.04101562 C4.84792023 0.07620783 7.01779033 0.13001015 9.1875 0.1875 C9.1875 1.5075 9.1875 2.8275 9.1875 4.1875 C7.29064453 4.38666016 7.29064453 4.38666016 5.35546875 4.58984375 C3.69529375 4.76805463 2.03513852 4.94644963 0.375 5.125 C-0.87506836 5.25551758 -0.87506836 5.25551758 -2.15039062 5.38867188 C-2.95283203 5.47568359 -3.75527344 5.56269531 -4.58203125 5.65234375 C-5.32042236 5.730896 -6.05881348 5.80944824 -6.81958008 5.89038086 C-9.01519378 6.15901996 -9.01519378 6.15901996 -11.8125 7.1875 C-14.58255248 13.80484759 -14.43942907 21.1089699 -14.8125 28.1875 C-16.1325 28.1875 -17.4525 28.1875 -18.8125 28.1875 C-18.92095027 25.14486733 -19.00002063 22.10613796 -19.0625 19.0625 C-19.09601562 18.2065625 -19.12953125 17.350625 -19.1640625 16.46875 C-19.25029608 10.86356761 -18.70268483 7.54080207 -14.8125 3.1875 C-10.35322739 -0.70111615 -5.60480179 -0.16300318 0 0 Z " fill="#000000" transform="translate(26.8125,7.8125)"/>
</svg>
